<?xml version="1.0" encoding="iso-8859-1"?>
<!-- Generator: Adobe Illustrator 19.0.0, SVG Export Plug-In . SVG Version: 6.00 Build 0)  -->
<svg version="1.1" id="Capa_1" xmlns="http://www.w3.org/2000/svg" xmlns:xlink="http://www.w3.org/1999/xlink" x="0px" y="0px"
	 viewBox="0 0 490 490" style="enable-background:new 0 0 490 490;" xml:space="preserve">
<g>
	<path d="M423.346,373.461c-33.593,59.259-96.732,96.066-164.768,96.066c-104.359,0-189.264-84.9-189.264-189.264
		c0-102.497,81.897-186.214,183.685-189.176L189.787,201.91l17.784,10.136l77.023-135.023L149.571,0l-10.146,17.773l94.929,54.159
		C130.074,83.981,48.84,172.806,48.84,280.263C48.84,395.913,142.928,490,258.578,490c75.394,0,145.355-40.785,182.582-106.443
		L423.346,373.461z"/>
	<path d="M252.738,217.343c-11.677,0-31.349,0.771-48.932,27.813l19.012,11.002c18.264-26.913,40.88-15.967,44.832-11.698
		c11.677,12.613,3.689,24.989,0.4,30.91c-4.421,7.96-62.643,65.235-62.643,65.235v20.013h95.66v-22.616h-63.443
		c0,0,47.389-48.074,53.431-58.626c5.253-9.174,13.102-33.006-7.598-50.935C274.763,220.908,264.404,217.343,252.738,217.343z"/>
	<polygon points="379.108,360.617 401.524,360.617 401.524,325.397 418.333,325.397 418.333,303.982 401.524,303.982 
		401.524,278.374 379.108,278.374 379.108,303.982 345.689,303.982 396.318,220.737 370.497,220.737 319.079,304.583 
		319.079,325.397 379.108,325.397 	"/>
</g>
<g>
</g>
<g>
</g>
<g>
</g>
<g>
</g>
<g>
</g>
<g>
</g>
<g>
</g>
<g>
</g>
<g>
</g>
<g>
</g>
<g>
</g>
<g>
</g>
<g>
</g>
<g>
</g>
<g>
</g>
</svg>
