<?xml version="1.0" encoding="iso-8859-1"?>
<!-- Generator: Adobe Illustrator 19.0.0, SVG Export Plug-In . SVG Version: 6.00 Build 0)  -->
<svg version="1.1" id="Layer_1" xmlns="http://www.w3.org/2000/svg" xmlns:xlink="http://www.w3.org/1999/xlink" x="0px" y="0px"
	 viewBox="0 0 512 512" style="enable-background:new 0 0 512 512;" xml:space="preserve">
<g transform="translate(1 1)">
	<g>
		<path d="M425.667,242.091c-13.243,0-25.805,3.06-37.018,8.503l-31.249-48.61c-0.791-0.791-1.77-1.575-2.843-2.196l-20.197-39.617
			l40.178-20.483c2.536-0.016,5.064-0.874,6.755-3.41c2.56-3.413,1.707-9.387-1.707-11.947l-34.133-25.6
			c-3.413-2.56-9.387-1.707-11.947,1.707c-2.56,3.413-1.707,9.387,1.707,11.947l22.869,17.152L319,149.078
			c-3.413,1.707-5.12,6.827-3.413,11.093l19.2,38.4H165.741l-14.848-24.747H178.2c5.12,0,8.533-3.413,8.533-8.533
			s-3.413-8.533-8.533-8.533h-59.733c-5.12,0-8.533,3.413-8.533,8.533s3.413,8.533,8.533,8.533h11.947l20.539,34.231l-27.906,43.41
			c-11.639-5.975-24.794-9.374-38.713-9.374C37.4,242.091-1,280.491-1,327.424c0,46.933,38.4,85.333,85.333,85.333
			c41.915,0,76.999-30.636,84.028-70.617l35.445,2.582c0.127,18.667,15.432,33.901,34.127,33.901
			c18.773,0,34.133-15.36,34.133-34.133c0-8.402-3.083-16.115-8.165-22.079l84.6-99.981l24.801,37.765
			c-20.024,15.652-32.969,39.994-32.969,67.228c0,46.933,38.4,85.333,85.333,85.333S511,374.358,511,327.424
			C511,280.491,472.6,242.091,425.667,242.091z M331.341,216.491l-81.315,96.1c-3.764-1.438-7.839-2.233-12.092-2.233
			c-8.845,0-16.93,3.411-23.01,8.981l-40.99-102.848H331.341z M84.333,395.691c-37.547,0-68.267-30.72-68.267-68.267
			c0-37.547,30.72-68.267,68.267-68.267c10.528,0,20.519,2.417,29.447,6.721l-36.273,56.425c-1.707,2.56-1.707,5.12-0.853,8.533
			s3.413,5.12,6.827,5.12l67.77,4.937C144.951,372.047,117.272,395.691,84.333,395.691z M152.504,323.837l-53.664-4.093
			l29.124-44.712C142.132,286.862,151.479,304.292,152.504,323.837z M169.608,325.142c-0.694-26.029-13.181-49.239-32.296-64.462
			l22.114-33.949l40.107,100.693L169.608,325.142z M237.933,361.558c-9.387,0-17.067-7.68-17.067-17.067
			c0-9.387,7.68-17.067,17.067-17.067S255,335.104,255,344.491C255,353.878,247.32,361.558,237.933,361.558z M425.667,395.691
			c-37.547,0-68.267-30.72-68.267-68.267c0-21.295,9.888-40.386,25.292-52.93l37.002,56.343c2.56,4.267,7.68,5.12,11.947,2.56
			s5.12-7.68,2.56-11.947l-36.234-56.365c8.479-3.797,17.851-5.929,27.701-5.929c37.547,0,68.267,30.72,68.267,68.267
			C493.933,364.971,463.213,395.691,425.667,395.691z"/>
	</g>
</g>
<g>
</g>
<g>
</g>
<g>
</g>
<g>
</g>
<g>
</g>
<g>
</g>
<g>
</g>
<g>
</g>
<g>
</g>
<g>
</g>
<g>
</g>
<g>
</g>
<g>
</g>
<g>
</g>
<g>
</g>
</svg>
