<?xml version="1.0" encoding="iso-8859-1"?>
<!-- Generator: Adobe Illustrator 19.0.0, SVG Export Plug-In . SVG Version: 6.00 Build 0)  -->
<svg version="1.1" id="Capa_1" xmlns="http://www.w3.org/2000/svg" xmlns:xlink="http://www.w3.org/1999/xlink" x="0px" y="0px"
	 viewBox="0 0 469.999 469.999" style="enable-background:new 0 0 469.999 469.999;" xml:space="preserve">
<g>
	<path d="M427.443,322.766l-92.786-35.806c-1.542-0.594-3.237-0.665-4.821-0.197l-43.301,12.765c-2.9,0.854-6.161,1.288-9.691,1.288
		c-12.303,0-25.377-5.15-32.535-12.816L34.269,63.034c-1.902-2.037-4.776-2.853-7.463-2.115c-2.688,0.736-4.745,2.901-5.344,5.623
		l-20.5,93.242c-3.339,15.189,2.273,35.204,12.884,47.055L28.41,402.405c0.292,3.915,3.553,6.943,7.479,6.943h32.468
		c4.142,0,7.5-3.358,7.5-7.5V294.754c0-7.77,2.741-15.159,7.656-21.04L208.373,393.27c9.415,9.016,27.002,16.078,40.038,16.078
		h214.089c4.142,0,7.5-3.358,7.5-7.5v-17.043C469.999,359.652,450.908,331.822,427.443,322.766z M60.858,294.754v99.594H42.852
		L30.056,222.527l42.6,40.791C65.085,271.992,60.858,283.076,60.858,294.754z M248.41,394.348c-9.175,0-23.037-5.566-29.664-11.912
		L26.312,198.174c-8.111-7.767-13.111-24.202-10.7-35.17l17.435-79.3l200.298,214.532c9.97,10.68,27.045,17.58,43.499,17.58
		c4.967,0,9.655-0.639,13.933-1.9l40.857-12.044l90.409,34.888c11.589,4.472,22.005,15.303,27.898,27.587h-19.33
		c-4.142,0-7.5,3.358-7.5,7.5s3.358,7.5,7.5,7.5h24c0.256,1.834,0.39,3.658,0.39,5.457v9.543H248.41z"/>
	<path d="M400.61,364.348H248.493c-1.896-0.14-7.592-2.427-9.057-3.637L47.06,176.506c-2.992-2.866-7.74-2.762-10.604,0.23
		c-2.865,2.992-2.762,7.739,0.23,10.604l192.466,184.292c3.853,3.647,13.91,7.685,19.26,7.716H400.61c4.142,0,7.5-3.358,7.5-7.5
		S404.752,364.348,400.61,364.348z"/>
</g>
<g>
</g>
<g>
</g>
<g>
</g>
<g>
</g>
<g>
</g>
<g>
</g>
<g>
</g>
<g>
</g>
<g>
</g>
<g>
</g>
<g>
</g>
<g>
</g>
<g>
</g>
<g>
</g>
<g>
</g>
</svg>
