<svg id="99ff70b0-b779-45f9-9623-2729874b6d8b" data-name="1" xmlns="http://www.w3.org/2000/svg" viewBox="0 0 1159.03 1512.28">
  <title>Рубль</title>
  <path d="M196.55,3073.08H101.68c-2.21,11.4-1.84,140.71-.51,157l95.3,0.09-0.23,63.58H100.88l0.06,156.9,95.41,0.17,0.2,433.22,167.7,0.34,0.65-433.25,602.33-.34c1.42-37.13.57-116.84,0.11-156.81l-602.19-.26-0.23-63.16c17.83-1.93,323.72-.4,350.73-0.4,117.41,0,210.42,2,309.88-42,43.23-19.11,78.15-44.67,103.89-71.55a459.48,459.48,0,0,0,40.25-48.13c12.76-17.66,24-32.51,35.86-52.55,48.27-81.52,65.62-180.4,45.07-290-17.66-94.34-48.25-174.16-112.65-238.34-28.2-28.06-57.34-51-102.78-72.68C936.73,2368,834.8,2373,724.9,2373H284.31c-19.33,0-72.31-2.47-87.76.62v699.42Zm168.35-.17c38,2.35,82.91.2,121.24,0.2,66.44,0,314.19,2.47,361.39-2.27,80.31-8.08,124.13-38.15,158.71-84a312.29,312.29,0,0,0,62.42-182.41c1.11-73.93-16.24-144.48-51.56-192-17.83-23.92-38.52-37.81-65.48-55.9-15.85-10.63-21.32-12.87-44-16.44-70-11-223.46-6.38-298.77-6.38-21,0-229.12-1.11-243.89.34Z" transform="translate(-100.09 -2372.1)" style="fill: #231f20;fill-rule: evenodd"/>
</svg>
