<?xml version="1.0" encoding="iso-8859-1"?>
<!-- Generator: Adobe Illustrator 17.1.0, SVG Export Plug-In . SVG Version: 6.00 Build 0)  -->
<!DOCTYPE svg PUBLIC "-//W3C//DTD SVG 1.1//EN" "http://www.w3.org/Graphics/SVG/1.1/DTD/svg11.dtd">
<svg version="1.1" id="Capa_1" xmlns="http://www.w3.org/2000/svg" xmlns:xlink="http://www.w3.org/1999/xlink" x="0px" y="0px"
	 viewBox="0 0 465.002 465.002" style="enable-background:new 0 0 465.002 465.002;" xml:space="preserve">
<g>
	<path d="M128.961,387.081c-44.286,0-83.647,26.536-100.277,67.604c-1.555,3.839,0.297,8.212,4.137,9.767
		c3.841,1.555,8.212-0.297,9.767-4.137c14.325-35.376,48.229-58.234,86.374-58.234s72.049,22.858,86.374,58.234
		c1.181,2.917,3.989,4.687,6.954,4.687c0.938,0,1.891-0.177,2.813-0.55c3.839-1.555,5.691-5.927,4.137-9.767
		C212.608,413.617,173.247,387.081,128.961,387.081z"/>
	<path d="M392.208,34.843C363.917,12.374,326.402,0,286.575,0c-39.83,0-77.345,12.374-105.636,34.843
		c-28.798,22.872-44.657,53.436-44.657,86.062c0,57.424,49.55,106.387,118.671,118.226c1.413,18.274-5.144,36.457-18.065,49.5
		c-2.13,2.15-2.759,5.371-1.594,8.165c1.165,2.794,3.896,4.614,6.922,4.614c36.82,0,68.419-26.381,75.696-62.234
		c32.012-5.463,61.189-19.344,82.664-39.422c23.403-21.88,36.292-49.883,36.292-78.849
		C436.868,88.279,421.007,57.715,392.208,34.843z M310.171,225.194c-3.905,0.539-6.727,4.01-6.457,7.944
		c0.004,0.057,0.009,0.115,0.014,0.172c-3.812,24.555-21.626,44.1-44.489,50.696c8.91-15.112,12.617-33.042,10.159-50.764
		c0.003-0.036,0.006-0.071,0.008-0.107c0.271-3.933-2.55-7.404-6.456-7.944c-64.706-8.943-111.669-52.802-111.669-104.287
		C151.282,62.509,211.974,15,286.575,15c74.601,0,135.293,47.509,135.293,105.905C421.868,172.399,374.893,216.259,310.171,225.194z
		"/>
	<path d="M236.239,112.905c-4.411,0-8,3.589-8,8s3.589,8,8,8s8-3.589,8-8S240.65,112.905,236.239,112.905z"/>
	<path d="M336.911,112.905c-4.411,0-8,3.589-8,8s3.589,8,8,8s8-3.589,8-8S341.322,112.905,336.911,112.905z"/>
	<path d="M286.575,112.905c-4.411,0-8,3.589-8,8s3.589,8,8,8s8-3.589,8-8S290.986,112.905,286.575,112.905z"/>
	<path d="M128.961,364.329c38.83,0,70.419-31.59,70.419-70.42s-31.59-70.419-70.419-70.419s-70.419,31.59-70.419,70.419
		S90.131,364.329,128.961,364.329z M128.961,238.49c30.559,0,55.419,24.861,55.419,55.419s-24.861,55.42-55.419,55.42
		s-55.419-24.861-55.419-55.42S98.402,238.49,128.961,238.49z"/>
</g>
<g>
</g>
<g>
</g>
<g>
</g>
<g>
</g>
<g>
</g>
<g>
</g>
<g>
</g>
<g>
</g>
<g>
</g>
<g>
</g>
<g>
</g>
<g>
</g>
<g>
</g>
<g>
</g>
<g>
</g>
</svg>
