<?xml version="1.0" encoding="iso-8859-1"?>
<!-- Generator: Adobe Illustrator 19.0.0, SVG Export Plug-In . SVG Version: 6.00 Build 0)  -->
<svg version="1.1" id="Layer_1" xmlns="http://www.w3.org/2000/svg" xmlns:xlink="http://www.w3.org/1999/xlink" x="0px" y="0px"
	 viewBox="0 0 512 512" style="enable-background:new 0 0 512 512;" xml:space="preserve">
<g>
	<g>
		<polygon points="464.144,376.261 464.144,391.917 472.327,391.917 472.327,424.294 39.673,424.294 39.673,391.917 47.856,391.917 
			47.856,376.261 24.017,376.261 24.017,439.95 487.983,439.95 487.983,376.261 		"/>
	</g>
</g>
<g>
	<g>
		<polygon points="120.083,448.132 120.083,496.344 71.695,496.344 71.695,448.132 56.039,448.132 56.039,512 135.739,512 
			135.739,448.132 		"/>
	</g>
</g>
<g>
	<g>
		<polygon points="440.384,448.132 440.384,496.344 391.995,496.344 391.995,448.132 376.339,448.132 376.339,512 456.039,512 
			456.039,448.132 		"/>
	</g>
</g>
<g>
	<g>
		<path d="M127.911,280.193c-21.974,0-39.851,17.877-39.851,39.851c0,21.974,17.878,39.851,39.851,39.851
			c21.974,0,39.851-17.877,39.851-39.851C167.762,298.07,149.885,280.193,127.911,280.193z M127.911,344.239
			c-13.341,0-24.195-10.853-24.195-24.195s10.855-24.195,24.195-24.195c13.341,0,24.195,10.853,24.195,24.195
			S141.252,344.239,127.911,344.239z"/>
	</g>
</g>
<g>
	<g>
		<path d="M384.089,280.193c-21.974,0-39.851,17.877-39.851,39.851c0,21.974,17.877,39.851,39.851,39.851
			s39.851-17.877,39.851-39.851C423.94,298.07,406.063,280.193,384.089,280.193z M384.089,344.239
			c-13.341,0-24.195-10.853-24.195-24.195s10.854-24.195,24.195-24.195s24.195,10.853,24.195,24.195S397.43,344.239,384.089,344.239
			z"/>
	</g>
</g>
<g>
	<g>
		<path d="M352.066,184.127c-21.974,0-39.85,17.877-39.85,39.851h15.656c0-13.341,10.853-24.195,24.194-24.195
			s24.195,10.853,24.195,24.195h15.656C391.917,202.004,374.04,184.127,352.066,184.127z"/>
	</g>
</g>
<g>
	<g>
		<path d="M56.039,0v407.928H455.96V0H56.039z M71.695,55.684h176.477v24.372h-28.02v39.673h71.695V80.055h-28.02V55.684h176.477
			v176.478H71.695V55.684z M276.191,95.711v8.361h-40.383v-8.361H276.191z M440.304,392.272H71.695V247.818h368.609V392.272z
			 M440.304,40.028H71.695V15.656h368.609V40.028z"/>
	</g>
</g>
<g>
	<g>
		<path d="M0,129.145v94.655h47.679v-94.655H0z M32.023,208.145H15.656v-63.343h16.367V208.145z"/>
	</g>
</g>
<g>
	<g>
		<polygon points="16.011,88.061 16.011,119.906 31.667,119.906 31.667,103.717 47.856,103.717 47.856,88.061 		"/>
	</g>
</g>
<g>
	<g>
		<polygon points="31.667,248.172 31.667,231.983 16.011,231.983 16.011,263.827 47.856,263.827 47.856,248.172 		"/>
	</g>
</g>
<g>
	<g>
		<path d="M464.321,129.48v94.655H512V129.48H464.321z M496.344,208.479h-16.367v-63.343h16.367V208.479z"/>
	</g>
</g>
<g>
	<g>
		<polygon points="464.144,88.394 464.144,104.05 480.332,104.05 480.332,120.24 495.988,120.24 495.988,88.394 		"/>
	</g>
</g>
<g>
	<g>
		<polygon points="480.332,232.317 480.332,248.507 464.144,248.507 464.144,264.162 495.988,264.162 495.988,232.317 		"/>
	</g>
</g>
<g>
	<g>
		<rect x="183.947" y="280.189" width="144.097" height="15.656"/>
	</g>
</g>
<g>
	<g>
		<rect x="183.947" y="312.221" width="144.097" height="15.656"/>
	</g>
</g>
<g>
	<g>
		<rect x="183.947" y="344.243" width="144.097" height="15.656"/>
	</g>
</g>
<g>
	<g>
		
			<rect x="88.957" y="148.108" transform="matrix(0.7071 -0.7071 0.7071 0.7071 -69.287 144.5975)" width="101.888" height="15.656"/>
	</g>
</g>
<g>
	<g>
		
			<rect x="137.288" y="168.115" transform="matrix(0.7071 -0.7071 0.7071 0.7071 -77.5679 164.6209)" width="45.287" height="15.656"/>
	</g>
</g>
<g>
	<g>
		<rect x="120.081" y="312.033" width="15.656" height="16.012"/>
	</g>
</g>
<g>
	<g>
		<rect x="376.264" y="312.033" width="15.656" height="16.012"/>
	</g>
</g>
<g>
</g>
<g>
</g>
<g>
</g>
<g>
</g>
<g>
</g>
<g>
</g>
<g>
</g>
<g>
</g>
<g>
</g>
<g>
</g>
<g>
</g>
<g>
</g>
<g>
</g>
<g>
</g>
<g>
</g>
</svg>
