<?xml version="1.0" encoding="iso-8859-1"?>
<!-- Generator: Adobe Illustrator 18.0.0, SVG Export Plug-In . SVG Version: 6.00 Build 0)  -->
<!DOCTYPE svg PUBLIC "-//W3C//DTD SVG 1.1//EN" "http://www.w3.org/Graphics/SVG/1.1/DTD/svg11.dtd">
<svg version="1.1" id="Capa_1" xmlns="http://www.w3.org/2000/svg" xmlns:xlink="http://www.w3.org/1999/xlink" x="0px" y="0px"
	 viewBox="0 0 419.857 419.857" style="enable-background:new 0 0 419.857 419.857;" xml:space="preserve">
<g>
	<path style="fill:#191918;" d="M412.885,207.658l-44.013-35.076l-4.029-10.318l8.863-5.593h30.936c2.485,0,4.5-2.015,4.5-4.5
		v-19.572c0-2.485-2.015-4.5-4.5-4.5h-32.237c-2.485,0-4.5,2.015-4.5,4.5v17.091l-6.396,4.036l-21.016-53.824
		c-3.646-9.337-12.479-15.371-22.503-15.371h-43.659l-10.487-33.499c-1.737-5.552-6.353-9.282-11.484-9.282h-84.864
		c-5.132,0-9.747,3.73-11.484,9.282L145.525,84.53h-43.659c-10.023,0-18.856,6.034-22.503,15.371l-21.016,53.824l-6.396-4.036
		v-17.091c0-2.485-2.015-4.5-4.5-4.5H15.215c-2.485,0-4.5,2.015-4.5,4.5v19.572c0,2.485,2.015,4.5,4.5,4.5H46.15l8.863,5.593
		l-4.029,10.318L6.972,207.658c-5.386,4.292-7.931,11.162-6.642,17.928l12.841,67.393c-6.698,2.31-11.554,8.699-11.554,16.117v14.42
		c0,9.353,7.609,16.999,16.961,17.045l18.244,0.091v22.502c0,8.245,6.708,14.952,14.952,14.952h43.176
		c8.244,0,14.952-6.708,14.952-14.952V340.73h200.056v22.425c0,8.245,6.708,14.952,14.952,14.952h43.176
		c8.245,0,14.952-6.708,14.952-14.952v-22.502l18.244-0.091c9.352-0.046,16.96-7.693,16.96-17.045v-14.419
		c0-7.42-4.858-13.809-11.557-16.119l12.841-67.392C420.816,218.82,418.271,211.951,412.885,207.658z M376.905,137.099h23.237
		v10.572h-23.237V137.099z M42.952,147.671H19.715v-10.572h23.237V147.671z M358.79,171.507H201.717l54.945-60.642h78.45
		L358.79,171.507z M244.516,110.865l-54.945,60.642h-21.243l54.945-60.642H244.516z M164.601,53.72
		c0.547-1.749,1.738-2.97,2.896-2.97h84.864c1.157,0,2.348,1.221,2.896,2.97l9.645,30.811H154.956L164.601,53.72z M101.867,93.53
		H317.99c5.805,0,10.968,3.23,13.528,8.334H88.338C90.899,96.76,96.061,93.53,101.867,93.53z M84.745,110.865h126.383
		l-54.945,60.642H61.066L84.745,110.865z M100.902,363.155c0,3.282-2.67,5.952-5.952,5.952H51.774c-3.282,0-5.952-2.67-5.952-5.952
		v-22.458l6.561,0.033h48.519V363.155z M374.038,363.155c0,3.282-2.67,5.952-5.952,5.952H324.91c-3.282,0-5.952-2.67-5.952-5.952
		V340.73h5.031H367.5l6.539-0.033V363.155z M409.243,309.097v14.419c0,4.415-3.591,8.023-8.005,8.045l-33.76,0.168H52.406
		l-33.783-0.168c-4.415-0.022-8.006-3.631-8.006-8.045v-14.42c0-3.608,2.435-6.697,5.745-7.699
		c3.362,4.901,8.986,8.048,15.229,8.048h356.673c6.244,0,11.868-3.147,15.23-8.048C406.807,302.397,409.243,305.488,409.243,309.097
		z M410.686,223.901l-13.118,68.847c-0.85,4.46-4.762,7.698-9.303,7.698H31.592c-4.541,0-8.453-3.237-9.303-7.698L9.171,223.901
		c-0.662-3.474,0.645-7.001,3.411-9.205l42.9-34.189h308.894l42.9,34.189C410.041,216.9,411.348,220.427,410.686,223.901z"/>
	<path style="fill:#191918;" d="M377.678,225.676h-335.5c-5.249,0-10.165,2.331-13.486,6.396c-3.322,4.065-4.626,9.346-3.581,14.49
		l5.607,27.575c1.643,8.081,8.82,13.945,17.066,13.945h324.285c8.246,0,15.423-5.865,17.066-13.945l5.607-27.575
		c1.046-5.144-0.259-10.425-3.58-14.49C387.843,228.007,382.927,225.676,377.678,225.676z M296.601,234.676v44.406H123.26v-44.406
		H296.601z M39.539,272.344l-5.607-27.575c-0.505-2.486,0.125-5.038,1.73-7.002c1.604-1.964,3.98-3.091,6.517-3.091h72.081v44.406
		H47.786C43.801,279.083,40.333,276.249,39.539,272.344z M385.925,244.769l-5.607,27.575c-0.794,3.905-4.263,6.739-8.247,6.739
		h-66.47v-44.406h72.077c2.537,0,4.912,1.126,6.517,3.091C385.8,239.731,386.431,242.283,385.925,244.769z"/>
	<rect x="182.932" y="59.237" style="fill:#191918;" width="10.456" height="10.451"/>
	<rect x="193.388" y="69.689" style="fill:#191918;" width="10.451" height="10.456"/>
	<rect x="203.839" y="59.237" style="fill:#191918;" width="10.456" height="10.451"/>
	<rect x="214.295" y="69.689" style="fill:#191918;" width="10.451" height="10.456"/>
	<rect x="224.746" y="59.237" style="fill:#191918;" width="10.456" height="10.451"/>
</g>
<g>
</g>
<g>
</g>
<g>
</g>
<g>
</g>
<g>
</g>
<g>
</g>
<g>
</g>
<g>
</g>
<g>
</g>
<g>
</g>
<g>
</g>
<g>
</g>
<g>
</g>
<g>
</g>
<g>
</g>
</svg>
