<svg id="4a5681f5-9418-4e91-a144-87eaaa97f465" data-name="f596150c-efde-42c9-9a38-1e44417c3566" xmlns="http://www.w3.org/2000/svg" viewBox="0 0 125 125.01">
  <path d="M180,119.49h-3.57a9.62,9.62,0,0,1-8.68,5.48h-8a9.62,9.62,0,0,1-9.62-9.6V92.65a12.7,12.7,0,0,1-3.7-9V83.23H135.71a8.25,8.25,0,0,1-8.1-6.42,62.5,62.5,0,1,1,121.68,0,8.24,8.24,0,0,1-8.1,6.42H230.42V83.7a12.66,12.66,0,0,1-3.69,9v22.72a9.62,9.62,0,0,1-9.62,9.6h-8a9.62,9.62,0,0,1-8.68-5.48h-3.59" transform="translate(-125.95 0.03)" style="fill: #fff"/>
  <path d="M188.46,8.31a54.17,54.17,0,0,0-54.17,54.17h0a54.12,54.12,0,0,0,1.38,12.17,0.33,0.33,0,0,0,.33.26l104.93,0a0.33,0.33,0,0,0,.33-0.26,54.26,54.26,0,0,0-52.8-66.36h0Zm-0.63,108.33h0Z" transform="translate(-125.95 0.03)" style="fill: #66c"/>
  <path d="M176.4,74.92h3.48a0.33,0.33,0,0,0,.33-0.33V71.82a0.33,0.33,0,0,1,.33-0.33h1.39a0.33,0.33,0,0,1,.33.33v2.77a0.33,0.33,0,0,0,.33.33h4.52a0.33,0.33,0,0,0,.33-0.33V71.82a0.33,0.33,0,0,1,.33-0.33h1.38a0.33,0.33,0,0,1,.33.33v2.77a0.33,0.33,0,0,0,.33.33h4.51a0.33,0.33,0,0,0,.33-0.33V71.82a0.33,0.33,0,0,1,.33-0.33h1.39a0.33,0.33,0,0,1,.33.33v2.77a0.33,0.33,0,0,0,.33.33h3.48a0.33,0.33,0,0,0,.33-0.33V54.85a0.33,0.33,0,0,0-.33-0.33H197a0.33,0.33,0,0,0-.33.33v7.47a0.33,0.33,0,0,1-.33.33H195a0.33,0.33,0,0,1-.33-0.33V43.44a0.33,0.33,0,0,0-.33-0.33H182.6a0.33,0.33,0,0,0-.33.33V62.32a0.33,0.33,0,0,1-.33.33h-1.39a0.33,0.33,0,0,1-.33-0.33V54.85a0.33,0.33,0,0,0-.33-0.33h-3.48a0.33,0.33,0,0,0-.33.33V74.59A0.33,0.33,0,0,0,176.4,74.92ZM185.58,69h-0.92a0.33,0.33,0,0,1-.33-0.33V63.28a0.33,0.33,0,0,1,.1-0.24l2.91-2.91,0.88-.88a0.33,0.33,0,0,1,.47,0h0l0.88,0.88L192.48,63a0.33,0.33,0,0,1,.1.24v5.36a0.33,0.33,0,0,1-.33.33h-0.92a0.33,0.33,0,0,1-.33-0.33V63.93a0.33,0.33,0,0,0-.1-0.24l-2.21-2.21a0.33,0.33,0,0,0-.47,0L186,63.69a0.33,0.33,0,0,0-.1.24v4.71a0.33,0.33,0,0,1-.33.33h0Zm2.88-20.87a3.17,3.17,0,0,0-2.32,5.29l0.08,0.08a3.17,3.17,0,0,0,5.35-2.26,3.1,3.1,0,0,0-3.09-3.1h0Z" transform="translate(-125.95 0.03)" style="fill: #fff"/>
  <path d="M188.15,27.78a0.33,0.33,0,0,1,.61,0l2.55,5.85,2.65,6.1a0.33,0.33,0,0,1-.17.44l-0.13,0H183.27a0.33,0.33,0,0,1-.31-0.46l2.65-6.1Z" transform="translate(-125.95 0.03)" style="fill: #fff"/>
  <path d="M188.77,16.9l0.82,2.65a0.33,0.33,0,0,0,.33.23h2.71a0.33,0.33,0,0,1,.2.6L190.61,22a0.33,0.33,0,0,0-.12.36l0.85,2.68a0.33,0.33,0,0,1-.52.36l-2.16-1.63a0.33,0.33,0,0,0-.4,0l-2.17,1.64a0.33,0.33,0,0,1-.52-0.36l0.85-2.69a0.33,0.33,0,0,0-.12-0.36l-2.22-1.66a0.33,0.33,0,0,1,.2-0.6H187a0.33,0.33,0,0,0,.33-0.23l0.82-2.65A0.33,0.33,0,0,1,188.77,16.9Z" transform="translate(-125.95 0.03)" style="fill: #fff"/>
  <path d="M209,74.92h26.24V66.68a0.33,0.33,0,0,0-.57-0.24l-2.22,2.22a0.33,0.33,0,0,1-.47,0l-2.32-2.32a0.33,0.33,0,0,0-.57.24v8a0.33,0.33,0,0,1-.33.33h-6.33a0.33,0.33,0,0,1-.33-0.33V66.68a0.33,0.33,0,0,0-.57-0.24l-2.22,2.22a0.33,0.33,0,0,1-.47,0l-2.32-2.32a0.33,0.33,0,0,0-.57.24v8a0.33,0.33,0,0,1-.33.33H209Z" transform="translate(-125.95 0.03)" style="fill: #fff"/>
  <path d="M185.31,68.95h6.3a5.54,5.54,0,0,0,5.51-5.53h0a5.54,5.54,0,0,0-5.53-5.54h-6.3a5.54,5.54,0,0,0-5.53,5.54h0a5.54,5.54,0,0,0,5.53,5.53h0Z" transform="translate(-125.95 0.03)" style="fill: #e09e00"/>
  <path d="M159.79,116.65h8a1.28,1.28,0,0,0,1.28-1.27V101a1.28,1.28,0,0,0-1.28-1.28h-8a1.28,1.28,0,0,0-1.28,1.28v14.36a1.28,1.28,0,0,0,1.28,1.27h0Z" transform="translate(-125.95 0.03)" style="fill: #2d3e4f"/>
  <path d="M217.72,88.08h-1.89a4.38,4.38,0,0,1-4.37-4.38h0a4.38,4.38,0,0,1,4.37-4.36h1.89a4.38,4.38,0,0,1,4.37,4.36h0a4.38,4.38,0,0,1-4.37,4.37h0Z" transform="translate(-125.95 0.03)" style="fill: #e09e00"/>
  <path d="M159.18,88.08h1.89a4.38,4.38,0,0,0,4.37-4.38h0a4.38,4.38,0,0,0-4.37-4.36h-1.89a4.38,4.38,0,0,0-4.37,4.36h0a4.38,4.38,0,0,0,4.37,4.37h0Z" transform="translate(-125.95 0.03)" style="fill: #e09e00"/>
  <path d="M209.15,116.65h8a1.28,1.28,0,0,0,1.28-1.27V101a1.28,1.28,0,0,0-1.28-1.28h-8a1.28,1.28,0,0,0-1.28,1.28h0v14.36a1.28,1.28,0,0,0,1.28,1.27h0Z" transform="translate(-125.95 0.03)" style="fill: #2d3e4f"/>
  <path d="M188.46,111.17h26.2a3.74,3.74,0,0,0,3.73-3.73V88.84c0-2.06-8.68-25.42-14.28-25.42H172.77c-5.6,0-14.28,23.36-14.28,25.42v18.6a3.75,3.75,0,0,0,3.74,3.73h26.22Z" transform="translate(-125.95 0.03)" style="fill: #ffc000"/>
  <path d="M188.46,111.17h26.2a3.74,3.74,0,0,0,3.73-3.73V104H158.49v3.43a3.75,3.75,0,0,0,3.74,3.73h26.22Z" transform="translate(-125.95 0.03)" style="fill: #e09e00"/>
  <path d="M212.66,82.94c-0.79-2-1.66-4.35-2.58-6.3a52.63,52.63,0,0,0-3.77-6.84,12.85,12.85,0,0,0-2.47-2.87H173.06a12.93,12.93,0,0,0-2.47,2.87,52.63,52.63,0,0,0-3.77,6.84c-1,2.06-1.88,4.17-2.72,6.3h48.56Z" transform="translate(-125.95 0.03)" style="fill: #336"/>
  <path d="M163.57,98.54H213.1a1.91,1.91,0,0,0,1.9-1.91V90a1.91,1.91,0,0,0-1.9-1.9H163.57a1.91,1.91,0,0,0-1.9,1.9v6.67a1.91,1.91,0,0,0,1.9,1.9h0Z" transform="translate(-125.95 0.03)" style="fill: #e09e00"/>
  <path d="M167,90.18a3.28,3.28,0,0,1,2.68,1.39,2.19,2.19,0,0,1,.55-0.08,2,2,0,0,1,2,1.94v0a2,2,0,0,1-2,2h0a2.19,2.19,0,0,1-.55-0.08,3.28,3.28,0,0,1-6-1.88h0A3.28,3.28,0,0,1,167,90.18h0Z" transform="translate(-125.95 0.03)" style="fill: #fff"/>
  <path d="M209.94,90.18a3.28,3.28,0,0,0-2.68,1.39,2.19,2.19,0,0,0-.55-0.08,2,2,0,0,0-2,1.95s0,0,0,0a2,2,0,0,0,1.95,2h0a2.19,2.19,0,0,0,.55-0.08,3.28,3.28,0,0,0,6-1.88h0a3.28,3.28,0,0,0-3.27-3.28h0Z" transform="translate(-125.95 0.03)" style="fill: #fff"/>
  <rect x="63.49" y="61.35" width="1.99" height="1.99" style="fill: #38474e"/>
  <rect x="65.49" y="59.35" width="1.99" height="1.99" style="fill: #38474e"/>
  <rect x="61.51" y="59.35" width="1.98" height="1.99" style="fill: #38474e"/>
  <rect x="59.52" y="61.35" width="1.99" height="1.99" style="fill: #38474e"/>
  <rect x="57.53" y="59.35" width="1.99" height="1.99" style="fill: #38474e"/>
  <path d="M167.88,74.92H141.63V66.68a0.33,0.33,0,0,1,.57-0.24l2.22,2.22a0.33,0.33,0,0,0,.47,0l2.32-2.32a0.33,0.33,0,0,1,.57.24v8a0.33,0.33,0,0,0,.33.33h6.33a0.33,0.33,0,0,0,.33-0.33V66.68a0.33,0.33,0,0,1,.57-0.24l2.22,2.22a0.33,0.33,0,0,0,.47,0l2.32-2.32a0.33,0.33,0,0,1,.57.24v8a0.33,0.33,0,0,0,.33.33h6.64Z" transform="translate(-125.95 0.03)" style="fill: #fff"/>
</svg>
